PathFileType	3	(X/Y/Z)	C:\Users\koon_\Desktop\
DataRate	CameraRate	NumFrames	NumMarkers	Units	OrigDataRate	OrigDataStartFrame	OrigNumFrames
100.0	100.0	13	27	mm	100.0	253	2016	
Frame#	Time	get:LFHD			get:RFHD			get:LBHD			get:RBHD			get:C7			get:T10			get:CLAV			get:STRN			get:RBAK			get:LSHO			get:LUPA			get:LELB			get:LFRA			get:LWRA			get:LWRB			get:LFIN			get:RSHO			get:RUPA			get:RELB			get:RFRA			get:RWRA			get:RWRB			get:RFIN			get:LASI			get:RASI			get:LPSI			get:RPSI			
		X1	Y1	Z1	X2	Y2	Z2	X3	Y3	Z3	X4	Y4	Z4	X5	Y5	Z5	X6	Y6	Z6	X7	Y7	Z7	X8	Y8	Z8	X9	Y9	Z9	X10	Y10	Z10	X11	Y11	Z11	X12	Y12	Z12	X13	Y13	Z13	X14	Y14	Z14	X15	Y15	Z15	X16	Y16	Z16	X17	Y17	Z17	X18	Y18	Z18	X19	Y19	Z19	X20	Y20	Z20	X21	Y21	Z21	X22	Y22	Z22	X23	Y23	Z23	X24	Y24	Z24	X25	Y25	Z25	X26	Y26	Z26	X27	Y27	Z27	
253	2.52	156.34955	1560.3256	-35.267006	15.663288	1556.274	-48.543919	148.01006	1541.0248	-196.31673	19.527065	1512.9105	-209.96391	89.23877	1323.724	-198.19965	48.098526	1115.4348	-222.01614	60.167301	1269.5587	1.3155475	26.767109	1076.3282	55.223602	-1.8573827	1263.2316	-226.14728	212.78445	1312.3184	-105.93948	291.02264	1168.6974	-88.457253	312.2095	971.97418	-105.78007	314.61389	855.50525	-18.624176	291.30487	779.12482	12.45713	332.39087	771.34668	-62.492332	361.3634	718.01392	18.056341	-51.719818	1356.2567	-123.32892	-183.63989	1159.1127	-93.223808	-205.04724	1045.1587	-154.55524	-224.38295	995.68555	-71.015869	-221.70448	837.41583	-54.971809	-265.81464	848.61444	-122.33327	-289.33752	783.33734	-44.89257	129.36696	885.17017	22.981247	-133.83989	880.06628	-6.2576532	63.369289	947.27869	-201.08394	-26.038097	948.00427	-212.13411
254	2.53	162.30942	1559.0873	-34.448704	21.704288	1555.2029	-48.81052	155.24718	1539.5326	-195.40605	26.891874	1511.63	-210.19968	94.703613	1322.5201	-197.75476	50.575371	1114.8698	-221.7652	63.678555	1268.8785	1.5524218	26.826855	1076.2115	55.626522	2.8716567	1263.5768	-226.23451	217.52289	1309.1604	-105.01915	294.44739	1164.9196	-87.908447	314.59393	968.2171	-105.87489	317.11301	851.83093	-18.477026	293.60886	775.62805	12.939462	334.23273	767.66046	-62.277641	363.5105	714.17578	17.939445	-46.047466	1357.351	-123.43708	-180.76503	1161.8695	-94.706184	-203.18187	1048.2407	-156.35808	-222.80818	998.87396	-72.627281	-220.88474	840.55603	-55.770233	-265.40076	851.93451	-122.97735	-288.70065	786.49097	-45.466034	127.64913	884.76544	24.358986	-135.27713	880.70032	-7.2429066	63.485897	947.04529	-200.41319	-25.836645	947.98022	-212.19897
255	2.54	168.48898	1557.7137	-33.416359	27.820185	1554.0193	-49.176514	162.76379	1537.8658	-194.49431	34.472126	1510.0658	-210.3268	100.32486	1321.2042	-197.10004	53.02898	1114.2384	-221.58533	67.374641	1268.0514	1.8514562	26.99015	1076.0591	56.081966	7.8454514	1263.8372	-226.0591	222.32701	1305.7991	-103.98609	297.94458	1160.8494	-87.362061	317.1109	964.16681	-105.79317	319.44971	847.96729	-18.259726	295.72195	771.9129	13.353889	335.89865	763.68884	-62.074146	365.34656	710.04596	17.931953	-40.271431	1358.3372	-123.29773	-177.821	1164.6394	-96.138054	-201.41077	1051.3512	-158.10271	-221.20609	1002.0579	-74.376999	-219.9545	843.73602	-56.549324	-265.03848	855.2691	-123.44128	-287.82715	789.70978	-45.809757	125.69379	884.41223	25.621601	-136.67444	881.32159	-8.2058182	63.584476	946.89563	-199.78687	-25.713001	947.96313	-212.308
256	2.55	174.85626	1556.1641	-32.500072	34.320717	1552.7141	-49.357216	170.55513	1535.9346	-193.48065	42.299198	1508.3442	-210.31068	105.98039	1319.7618	-196.26097	55.449158	1113.6188	-221.33777	71.145287	1267.0864	2.2411575	27.210785	1075.8364	56.599796	12.879097	1264.054	-225.63196	227.26102	1302.2463	-102.7929	301.39072	1156.5668	-86.76931	319.60107	959.85284	-105.68512	321.5708	843.91034	-18.076204	297.65985	767.97614	13.694458	337.29742	759.55804	-61.954983	366.86346	705.6084	17.921511	-34.389946	1359.2333	-122.71039	-174.76004	1167.354	-97.749138	-199.54001	1054.4862	-159.91162	-219.28845	1005.2957	-75.831802	-218.83905	847.04395	-57.487354	-264.62762	858.67877	-123.83467	-286.87256	793.05756	-45.958153	124.16571	884.09015	26.898952	-138.02246	881.87134	-8.9816904	63.573322	946.76385	-199.23718	-25.658424	947.99054	-212.47559
257	2.56	181.42305	1554.4489	-31.386431	40.983212	1551.2314	-49.588268	178.57751	1533.759	-192.38936	50.391563	1506.407	-210.36208	111.94271	1318.6332	-195.98701	57.896358	1113.0549	-221.14226	75.094185	1265.9852	2.9121101	27.514334	1075.5076	57.166363	18.103561	1264.2295	-225.05597	232.25961	1298.5177	-101.631	304.76337	1152.0762	-86.169464	321.98322	955.35413	-105.61234	323.58099	839.68683	-17.903675	299.38852	763.90948	13.946784	338.80054	755.18982	-61.782223	368.1817	700.96973	17.892469	-28.274971	1360.0234	-121.88243	-171.67674	1170.1315	-99.11396	-197.57509	1057.7004	-161.81152	-217.47826	1008.5541	-77.500786	-217.80592	850.21704	-58.244625	-264.13776	862.1026	-124.27164	-285.87891	796.55847	-46.094391	122.6019	883.75739	28.114182	-139.35278	882.4729	-10.035511	63.492687	946.66492	-198.85651	-25.683247	948.06525	-212.64563
258	2.57	188.26193	1552.5592	-30.301552	47.907402	1549.6227	-49.813591	187.07306	1531.3082	-191.19077	58.668095	1504.2405	-210.19006	117.74657	1317.0758	-194.91623	60.341579	1112.5586	-221.10678	79.092148	1264.6714	3.5165479	27.951536	1075.1124	57.890747	23.386303	1264.4252	-224.1931	237.27715	1294.6074	-100.31926	308.11743	1147.4304	-85.500206	324.3241	950.75336	-105.58303	325.47668	835.29895	-17.87236	301.00119	759.69873	14.250422	339.96835	750.7027	-61.698944	369.30991	696.13251	17.816998	-22.14081	1360.7349	-120.95977	-168.55399	1172.8496	-100.37365	-195.61803	1060.8282	-163.4518	-215.50894	1011.8425	-78.864243	-216.61699	853.48444	-59.282021	-263.59802	865.45093	-124.62249	-284.86969	800.18036	-46.229294	121.1847	883.41998	29.069769	-140.59145	883.11743	-10.702079	63.387245	946.612	-198.57605	-25.753433	948.17816	-212.95459
259	2.58	195.33342	1550.417	-29.165201	55.013832	1547.8979	-49.904911	195.33534	1528.5505	-189.99606	67.125198	1501.9178	-210.13457	123.4988	1315.2435	-193.60844	62.680817	1112.0056	-220.81018	83.184967	1263.2106	4.2645793	28.479794	1074.5925	58.63726	28.663816	1264.5979	-223.25549	242.28194	1290.5399	-98.979477	311.4877	1142.5901	-84.804588	326.37982	946.03729	-105.60979	327.26285	830.69208	-17.87002	302.46631	755.29401	14.410885	340.9877	745.94696	-61.660667	370.28174	691.11945	17.796873	-15.5625	1361.573	-121.18405	-165.28409	1175.5681	-101.35085	-193.60736	1063.9633	-164.86771	-213.61406	1015.0638	-80.180672	-215.37076	856.72089	-60.292416	-263.02933	868.82251	-125.02515	-283.8056	803.84387	-46.135666	119.71532	882.9931	29.728054	-141.74493	883.65192	-11.831383	63.203827	946.55194	-198.4286	-25.916143	948.30597	-213.25153
260	2.59	202.5184	1548.0527	-28.096916	62.420631	1546.0707	-49.949619	203.68938	1525.5712	-188.73799	75.619781	1499.3367	-209.78641	129.0381	1313.2694	-191.86595	64.962776	1111.3684	-220.40222	87.35186	1261.5588	5.2187867	29.10614	1073.9268	59.216579	33.874355	1264.6133	-222.1041	247.18703	1286.2593	-97.547012	314.79523	1137.5881	-84.049919	328.40256	941.1546	-105.75099	328.86819	825.92865	-17.930414	303.7829	750.68738	14.545064	341.89734	741.01886	-61.749916	371.02545	685.92389	17.653542	-9.4590387	1362.0042	-119.1007	-161.91714	1178.2766	-101.887	-191.41103	1067.2031	-166.08942	-211.66016	1018.3047	-81.277046	-214.32727	859.79279	-60.645618	-262.37787	872.33527	-125.43758	-282.73993	807.51892	-46.257576	118.38166	882.64325	30.289351	-142.79134	884.34882	-11.789819	62.943123	946.46625	-198.46701	-26.090832	948.35693	-213.63301
261	2.6	209.83542	1545.5829	-26.805939	69.91851	1544.1864	-49.983517	212.16557	1522.3479	-187.5011	84.238304	1496.693	-209.63388	134.97029	1311.6044	-190.92474	67.134453	1110.8348	-219.99263	91.65139	1259.7156	6.1531491	29.820881	1073.1525	59.830826	38.976501	1264.7183	-221.08017	252.07106	1281.8101	-96.124344	318.04987	1132.4774	-83.276474	330.30945	936.13666	-105.88191	330.34656	820.92871	-18.037762	304.89719	745.94086	14.62368	342.5639	735.89606	-61.849674	371.66769	680.64929	17.48768	-3.0756316	1362.481	-117.81261	-158.57092	1180.9752	-102.1794	-189.28316	1070.5317	-167.00333	-209.73407	1021.4427	-82.469894	-212.66534	862.79785	-62.368385	-261.68112	875.83063	-125.94373	-281.82019	811.1936	-46.563248	117.18211	882.24554	30.62978	-143.78557	884.89136	-13.762091	62.661091	946.28381	-198.61343	-26.328791	948.44238	-214.20615
262	2.61	217.27516	1542.9426	-25.691689	77.560356	1542.1868	-49.903984	220.72563	1518.9822	-186.09665	92.822586	1493.8467	-208.79773	140.33925	1309.6024	-189.28485	69.247543	1110.2351	-219.49338	95.906624	1257.7516	7.1880364	30.632336	1072.2942	60.145874	43.942947	1264.6354	-219.5919	256.69495	1277.1594	-94.607788	321.26776	1127.2279	-82.477219	332.16962	930.90662	-105.9886	331.71637	815.80988	-18.131018	305.76849	740.99036	14.619135	343.06555	730.64337	-62.035568	372.16229	675.27612	17.292004	3.5718398	1362.9467	-117.20154	-155.06366	1183.6527	-102.14133	-186.85631	1073.9869	-167.787	-207.61549	1024.4692	-83.394936	-210.92035	865.64398	-63.963787	-260.91394	879.37775	-126.31473	-280.72473	814.8028	-46.83482	116.09853	881.80786	30.87031	-145.27724	886.45612	-11.282127	62.371445	946.04675	-198.84778	-26.570425	948.37531	-214.69087
263	2.62	224.74272	1540.1919	-24.336729	85.364929	1540.196	-49.66782	229.29381	1515.4617	-184.79947	101.52372	1491.0881	-208.67659	145.82948	1307.7512	-188.00447	71.131126	1109.7866	-218.92152	100.28723	1255.5879	8.2089558	31.596779	1071.3018	60.53373	48.710686	1264.7069	-218.2142	261.31732	1272.3755	-93.189583	324.30756	1121.8339	-81.741493	333.8436	925.50464	-106.09473	332.86349	810.49854	-18.272945	306.51553	735.92572	14.522025	343.29968	725.38873	-62.341354	372.40723	669.7229	16.973644	10.001878	1363.2693	-115.39308	-151.59827	1186.262	-101.7859	-184.98894	1077.4742	-168.17996	-205.36293	1027.4313	-83.705612	-209.59381	868.54724	-64.662766	-260.09998	882.84894	-126.50156	-279.54547	818.40601	-47.276531	115.0704	881.47211	31.020565	-146.0197	887.16669	-12.473465	62.076469	945.70941	-199.08337	-26.744455	948.34229	-215.27568
264	2.63	232.3597	1537.2013	-23.067501	93.248093	1538.104	-49.461857	237.90317	1511.7769	-183.29456	110.16901	1488.114	-207.77721	151.45508	1305.953	-186.84364	72.933983	1109.5574	-218.69279	104.7162	1253.3085	9.2634811	32.627583	1070.1499	59.258217	53.397522	1264.8804	-216.76758	265.94193	1267.6161	-91.942841	327.34164	1116.4253	-81.017525	335.47449	920.05707	-106.14817	333.88983	805.11798	-18.525314	307.10675	730.7113	14.377189	343.72363	719.95563	-62.52771	372.60773	664.13739	16.54455	16.189552	1363.4347	-112.56727	-148.27678	1189.1116	-100.75062	-183.01678	1080.9243	-168.32254	-202.99765	1030.4204	-84.115295	-208.90147	872.22772	-64.433144	-259.21399	886.3894	-126.85368	-278.29553	821.87018	-47.609623	114.21947	881.15717	31.074852	-146.23294	887.08575	-15.468851	61.850685	945.41083	-199.37114	-26.9119	948.42255	-215.88858
265	2.64	239.9455	1534.0607	-21.754217	101.17838	1535.975	-49.10474	246.71539	1507.7845	-181.80756	118.89645	1485.0986	-207.27353	156.52827	1303.8815	-185.14516	74.671471	1109.3794	-218.45093	109.07913	1250.8779	10.484993	33.77216	1068.9113	59.418716	57.894604	1265.0564	-215.53052	270.53604	1262.8679	-90.829117	330.12527	1110.928	-80.436493	336.99265	914.5686	-106.25656	334.80325	799.74652	-18.758102	307.59863	725.42267	14.214655	343.70627	714.60748	-62.922531	372.65179	658.44257	16.060923	22.703089	1363.4954	-110.4184	-144.65677	1191.7175	-100.00792	-180.86095	1084.4553	-168.31195	-200.48712	1033.4504	-84.153	-207.26031	875.08606	-65.612785	-258.31714	889.95959	-127.01696	-276.83752	825.20874	-47.694221	113.26702	880.85577	31.113773	-146.95595	887.95264	-16.164646	61.671329	945.10773	-199.77733	-27.044964	948.47632	-216.44609
